<svg id="Layer_1" data-name="Layer 1" xmlns="http://www.w3.org/2000/svg" viewBox="0 0 160 160"><title>garlic</title><path d="M104.55453,76.12982a18.274,18.274,0,0,0-5.15-4.36,29.11061,29.11061,0,0,0-5.87-2.45c-2.58-.85-5.0199-1.66-6.72-3.37a10.4297,10.4297,0,0,1-2.44006-4.50995c-1.51-5.11-.90991-10.65-.31995-16a1.94147,1.94147,0,0,0-1.05994-1.93005,1.91375,1.91375,0,0,0-2.18005.31,33.49441,33.49441,0,0,1-8.49,5.49005.00978.00978,0,0,0-.01.00995,1.1289,1.1289,0,0,0-.21008.12006c-.01,0-.0199.00995-.02991.02a1.20236,1.20236,0,0,0-.21008.17.98143.98143,0,0,0-.16992.18005,1.20808,1.20808,0,0,0-.22.31995.90576.90576,0,0,0-.11011.22.07709.07709,0,0,1-.01.03.86884.86884,0,0,0-.05994.23.75549.75549,0,0,0-.03992.16,2.0794,2.0794,0,0,0-.01.5l.65991,5.78a20.92157,20.92157,0,0,1,.21,2.93,15.24728,15.24728,0,0,1-.97,4.69c-.49,1.41-1.30994,3.39-2.78,4.32a22.16025,22.16025,0,0,1-2.25,1.21c-.63989.31-1.35986.67-2.18994,1.15a.596.596,0,0,0-.08008.04,23.65794,23.65794,0,0,0-13.55994,26.4,22.71356,22.71356,0,0,0,21.95007,17.58008,20.4808,20.4808,0,0,0,2.7-.17017.57078.57078,0,0,0,.14-.02991,4.54077,4.54077,0,0,0,.36.28992,6.94556,6.94556,0,0,0,4.05,1.24,9.53137,9.53137,0,0,0,5.37988-1.7699,12.47544,12.47544,0,0,0,6.07007,1.51,14.20228,14.20228,0,0,0,4.74-.81995,19.60343,19.60343,0,0,0,8.47-6.18005,26.47711,26.47711,0,0,0,.41-33.31006Zm-3.38,30.85a15.74707,15.74707,0,0,1-6.77,5,9.80413,9.80413,0,0,1-6.6499.05,20.75,20.75,0,0,0,3.23-6.21,33.64512,33.64512,0,0,0,1.45-12.43005,16.40292,16.40292,0,0,0-5.64-11.96,1.92721,1.92721,0,0,0-2.42,3,12.62317,12.62317,0,0,1,4.21008,9.18005,29.959,29.959,0,0,1-1.27,11.02991,16.15381,16.15381,0,0,1-4.16,6.72009c-1.45,1.33984-3.90991,2.05994-5.5.93994a6.07229,6.07229,0,0,1-1.2-1.23,17.66306,17.66306,0,0,1-3.45-13.68005,1.93256,1.93256,0,0,0-3.81006-.65,21.61624,21.61624,0,0,0,2.88,14.75,19.06907,19.06907,0,0,1-18.03-14.54993c-1.97-8.69,3.1-18.54,11.30994-22a2.58938,2.58938,0,0,0,.29-.14c.01-.01.02-.01.03-.02.78-.45,1.47-.78,2.13-1.11a25.7988,25.7988,0,0,0,2.62-1.42c2.49-1.58,3.67993-4.36,4.36-6.31a18.88158,18.88158,0,0,0,1.19006-5.88,24.87773,24.87773,0,0,0-.23-3.45l-.51-4.43a44.19822,44.19822,0,0,0,4.53-2.64,35.78429,35.78429,0,0,0,.90991,12.99,14.128,14.128,0,0,0,3.41,6.15c2.35,2.35,5.34,3.35,8.23,4.31a25.98347,25.98347,0,0,1,5.12,2.09,14.8671,14.8671,0,0,1,4.09009,3.43,22.642,22.642,0,0,1-.3501,28.47Z"/><path d="M61.8853,90.24412A9.55514,9.55514,0,0,1,65.73438,83.78c1.65881-1.20384.05579-3.99486-1.623-2.77655a13.12184,13.12184,0,0,0-5.44168,9.2407c-.25816,2.04776,2.95978,2.029,3.21557,0Z"/></svg>